<svg width="205mm" height="205mm" version="1.1" viewBox="0 0 205 205" xmlns="http://www.w3.org/2000/svg"><path d="M20,20H25V25H20zM25,20H30V25H25zM30,20H35V25H30zM35,20H40V25H35zM40,20H45V25H40zM45,20H50V25H45zM50,20H55V25H50zM80,20H85V25H80zM85,20H90V25H85zM115,20H120V25H115zM120,20H125V25H120zM135,20H140V25H135zM150,20H155V25H150zM155,20H160V25H155zM160,20H165V25H160zM165,20H170V25H165zM170,20H175V25H170zM175,20H180V25H175zM180,20H185V25H180zM20,25H25V30H20zM50,25H55V30H50zM60,25H65V30H60zM70,25H75V30H70zM75,25H80V30H75zM80,25H85V30H80zM90,25H95V30H90zM95,25H100V30H95zM105,25H110V30H105zM130,25H135V30H130zM135,25H140V30H135zM150,25H155V30H150zM180,25H185V30H180zM20,30H25V35H20zM30,30H35V35H30zM35,30H40V35H35zM40,30H45V35H40zM50,30H55V35H50zM60,30H65V35H60zM65,30H70V35H65zM75,30H80V35H75zM80,30H85V35H80zM85,30H90V35H85zM100,30H105V35H100zM110,30H115V35H110zM115,30H120V35H115zM120,30H125V35H120zM150,30H155V35H150zM160,30H165V35H160zM165,30H170V35H165zM170,30H175V35H170zM180,30H185V35H180zM20,35H25V40H20zM30,35H35V40H30zM35,35H40V40H35zM40,35H45V40H40zM50,35H55V40H50zM95,35H100V40H95zM100,35H105V40H100zM110,35H115V40H110zM135,35H140V40H135zM150,35H155V40H150zM160,35H165V40H160zM165,35H170V40H165zM170,35H175V40H170zM180,35H185V40H180zM20,40H25V45H20zM30,40H35V45H30zM35,40H40V45H35zM40,40H45V45H40zM50,40H55V45H50zM65,40H70V45H65zM75,40H80V45H75zM80,40H85V45H80zM85,40H90V45H85zM105,40H110V45H105zM110,40H115V45H110zM125,40H130V45H125zM130,40H135V45H130zM150,40H155V45H150zM160,40H165V45H160zM165,40H170V45H165zM170,40H175V45H170zM180,40H185V45H180zM20,45H25V50H20zM50,45H55V50H50zM65,45H70V50H65zM85,45H90V50H85zM95,45H100V50H95zM100,45H105V50H100zM105,45H110V50H105zM125,45H130V50H125zM150,45H155V50H150zM180,45H185V50H180zM20,50H25V55H20zM25,50H30V55H25zM30,50H35V55H30zM35,50H40V55H35zM40,50H45V55H40zM45,50H50V55H45zM50,50H55V55H50zM60,50H65V55H60zM70,50H75V55H70zM80,50H85V55H80zM90,50H95V55H90zM100,50H105V55H100zM110,50H115V55H110zM120,50H125V55H120zM130,50H135V55H130zM140,50H145V55H140zM150,50H155V55H150zM155,50H160V55H155zM160,50H165V55H160zM165,50H170V55H165zM170,50H175V55H170zM175,50H180V55H175zM180,50H185V55H180zM65,55H70V60H65zM70,55H75V60H70zM85,55H90V60H85zM105,55H110V60H105zM115,55H120V60H115zM130,55H135V60H130zM135,55H140V60H135zM140,55H145V60H140zM25,60H30V65H25zM30,60H35V65H30zM35,60H40V65H35zM45,60H50V65H45zM50,60H55V65H50zM75,60H80V65H75zM80,60H85V65H80zM90,60H95V65H90zM100,60H105V65H100zM105,60H110V65H105zM110,60H115V65H110zM125,60H130V65H125zM170,60H175V65H170zM175,60H180V65H175zM20,65H25V70H20zM40,65H45V70H40zM55,65H60V70H55zM60,65H65V70H60zM75,65H80V70H75zM80,65H85V70H80zM90,65H95V70H90zM105,65H110V70H105zM110,65H115V70H110zM115,65H120V70H115zM120,65H125V70H120zM125,65H130V70H125zM135,65H140V70H135zM145,65H150V70H145zM150,65H155V70H150zM155,65H160V70H155zM165,65H170V70H165zM170,65H175V70H170zM180,65H185V70H180zM20,70H25V75H20zM25,70H30V75H25zM30,70H35V75H30zM35,70H40V75H35zM50,70H55V75H50zM55,70H60V75H55zM60,70H65V75H60zM65,70H70V75H65zM75,70H80V75H75zM90,70H95V75H90zM110,70H115V75H110zM120,70H125V75H120zM135,70H140V75H135zM150,70H155V75H150zM160,70H165V75H160zM165,70H170V75H165zM175,70H180V75H175zM180,70H185V75H180zM30,75H35V80H30zM35,75H40V80H35zM55,75H60V80H55zM60,75H65V80H60zM65,75H70V80H65zM70,75H75V80H70zM85,75H90V80H85zM95,75H100V80H95zM105,75H110V80H105zM115,75H120V80H115zM140,75H145V80H140zM145,75H150V80H145zM150,75H155V80H150zM160,75H165V80H160zM165,75H170V80H165zM180,75H185V80H180zM40,80H45V85H40zM45,80H50V85H45zM50,80H55V85H50zM70,80H75V85H70zM75,80H80V85H75zM95,80H100V85H95zM100,80H105V85H100zM115,80H120V85H115zM120,80H125V85H120zM140,80H145V85H140zM155,80H160V85H155zM160,80H165V85H160zM20,85H25V90H20zM25,85H30V90H25zM35,85H40V90H35zM45,85H50V90H45zM60,85H65V90H60zM75,85H80V90H75zM80,85H85V90H80zM95,85H100V90H95zM100,85H105V90H100zM105,85H110V90H105zM120,85H125V90H120zM125,85H130V90H125zM130,85H135V90H130zM140,85H145V90H140zM145,85H150V90H145zM155,85H160V90H155zM170,85H175V90H170zM175,85H180V90H175zM25,90H30V95H25zM30,90H35V95H30zM45,90H50V95H45zM50,90H55V95H50zM65,90H70V95H65zM80,90H85V95H80zM85,90H90V95H85zM95,90H100V95H95zM100,90H105V95H100zM105,90H110V95H105zM110,90H115V95H110zM115,90H120V95H115zM120,90H125V95H120zM125,90H130V95H125zM140,90H145V95H140zM145,90H150V95H145zM160,90H165V95H160zM165,90H170V95H165zM170,90H175V95H170zM25,95H30V100H25zM35,95H40V100H35zM55,95H60V100H55zM65,95H70V100H65zM70,95H75V100H70zM125,95H130V100H125zM140,95H145V100H140zM145,95H150V100H145zM150,95H155V100H150zM165,95H170V100H165zM170,95H175V100H170zM20,100H25V105H20zM25,100H30V105H25zM50,100H55V105H50zM55,100H60V105H55zM60,100H65V105H60zM80,100H85V105H80zM85,100H90V105H85zM90,100H95V105H90zM95,100H100V105H95zM100,100H105V105H100zM110,100H115V105H110zM120,100H125V105H120zM125,100H130V105H125zM130,100H135V105H130zM140,100H145V105H140zM150,100H155V105H150zM155,100H160V105H155zM160,100H165V105H160zM165,100H170V105H165zM170,100H175V105H170zM175,100H180V105H175zM180,100H185V105H180zM25,105H30V110H25zM40,105H45V110H40zM45,105H50V110H45zM55,105H60V110H55zM65,105H70V110H65zM75,105H80V110H75zM80,105H85V110H80zM85,105H90V110H85zM90,105H95V110H90zM95,105H100V110H95zM105,105H110V110H105zM110,105H115V110H110zM120,105H125V110H120zM130,105H135V110H130zM135,105H140V110H135zM140,105H145V110H140zM145,105H150V110H145zM150,105H155V110H150zM160,105H165V110H160zM175,105H180V110H175zM180,105H185V110H180zM20,110H25V115H20zM25,110H30V115H25zM30,110H35V115H30zM35,110H40V115H35zM40,110H45V115H40zM45,110H50V115H45zM50,110H55V115H50zM60,110H65V115H60zM70,110H75V115H70zM75,110H80V115H75zM95,110H100V115H95zM100,110H105V115H100zM105,110H110V115H105zM120,110H125V115H120zM125,110H130V115H125zM145,110H150V115H145zM150,110H155V115H150zM155,110H160V115H155zM165,110H170V115H165zM175,110H180V115H175zM20,115H25V120H20zM25,115H30V120H25zM30,115H35V120H30zM55,115H60V120H55zM70,115H75V120H70zM75,115H80V120H75zM90,115H95V120H90zM95,115H100V120H95zM100,115H105V120H100zM115,115H120V120H115zM135,115H140V120H135zM145,115H150V120H145zM150,115H155V120H150zM25,120H30V125H25zM40,120H45V125H40zM50,120H55V125H50zM55,120H60V125H55zM65,120H70V125H65zM70,120H75V125H70zM80,120H85V125H80zM90,120H95V125H90zM95,120H100V125H95zM100,120H105V125H100zM105,120H110V125H105zM115,120H120V125H115zM125,120H130V125H125zM130,120H135V125H130zM135,120H140V125H135zM145,120H150V125H145zM170,120H175V125H170zM180,120H185V125H180zM20,125H25V130H20zM40,125H45V130H40zM55,125H60V130H55zM60,125H65V130H60zM70,125H75V130H70zM80,125H85V130H80zM85,125H90V130H85zM90,125H95V130H90zM105,125H110V130H105zM110,125H115V130H110zM120,125H125V130H120zM125,125H130V130H125zM130,125H135V130H130zM135,125H140V130H135zM145,125H150V130H145zM150,125H155V130H150zM165,125H170V130H165zM180,125H185V130H180zM45,130H50V135H45zM50,130H55V135H50zM55,130H60V135H55zM65,130H70V135H65zM90,130H95V135H90zM105,130H110V135H105zM115,130H120V135H115zM120,130H125V135H120zM135,130H140V135H135zM145,130H150V135H145zM155,130H160V135H155zM160,130H165V135H160zM175,130H180V135H175zM180,130H185V135H180zM25,135H30V140H25zM35,135H40V140H35zM40,135H45V140H40zM60,135H65V140H60zM65,135H70V140H65zM85,135H90V140H85zM100,135H105V140H100zM120,135H125V140H120zM135,135H140V140H135zM140,135H145V140H140zM145,135H150V140H145zM150,135H155V140H150zM155,135H160V140H155zM20,140H25V145H20zM45,140H50V145H45zM50,140H55V145H50zM55,140H60V145H55zM60,140H65V145H60zM75,140H80V145H75zM110,140H115V145H110zM115,140H120V145H115zM120,140H125V145H120zM130,140H135V145H130zM140,140H145V145H140zM145,140H150V145H145zM150,140H155V145H150zM155,140H160V145H155zM160,140H165V145H160zM180,140H185V145H180zM60,145H65V150H60zM65,145H70V150H65zM70,145H75V150H70zM80,145H85V150H80zM95,145H100V150H95zM100,145H105V150H100zM110,145H115V150H110zM115,145H120V150H115zM140,145H145V150H140zM160,145H165V150H160zM165,145H170V150H165zM20,150H25V155H20zM25,150H30V155H25zM30,150H35V155H30zM35,150H40V155H35zM40,150H45V155H40zM45,150H50V155H45zM50,150H55V155H50zM65,150H70V155H65zM80,150H85V155H80zM115,150H120V155H115zM120,150H125V155H120zM125,150H130V155H125zM130,150H135V155H130zM135,150H140V155H135zM140,150H145V155H140zM150,150H155V155H150zM160,150H165V155H160zM165,150H170V155H165zM170,150H175V155H170zM175,150H180V155H175zM20,155H25V160H20zM50,155H55V160H50zM60,155H65V160H60zM65,155H70V160H65zM75,155H80V160H75zM80,155H85V160H80zM85,155H90V160H85zM90,155H95V160H90zM95,155H100V160H95zM100,155H105V160H100zM105,155H110V160H105zM110,155H115V160H110zM125,155H130V160H125zM130,155H135V160H130zM135,155H140V160H135zM140,155H145V160H140zM160,155H165V160H160zM170,155H175V160H170zM175,155H180V160H175zM20,160H25V165H20zM30,160H35V165H30zM35,160H40V165H35zM40,160H45V165H40zM50,160H55V165H50zM70,160H75V165H70zM75,160H80V165H75zM90,160H95V165H90zM95,160H100V165H95zM100,160H105V165H100zM105,160H110V165H105zM115,160H120V165H115zM120,160H125V165H120zM125,160H130V165H125zM135,160H140V165H135zM140,160H145V165H140zM145,160H150V165H145zM150,160H155V165H150zM155,160H160V165H155zM160,160H165V165H160zM170,160H175V165H170zM175,160H180V165H175zM180,160H185V165H180zM20,165H25V170H20zM30,165H35V170H30zM35,165H40V170H35zM40,165H45V170H40zM50,165H55V170H50zM60,165H65V170H60zM65,165H70V170H65zM70,165H75V170H70zM75,165H80V170H75zM85,165H90V170H85zM100,165H105V170H100zM115,165H120V170H115zM125,165H130V170H125zM155,165H160V170H155zM165,165H170V170H165zM170,165H175V170H170zM175,165H180V170H175zM180,165H185V170H180zM20,170H25V175H20zM30,170H35V175H30zM35,170H40V175H35zM40,170H45V175H40zM50,170H55V175H50zM60,170H65V175H60zM65,170H70V175H65zM80,170H85V175H80zM120,170H125V175H120zM130,170H135V175H130zM140,170H145V175H140zM145,170H150V175H145zM150,170H155V175H150zM155,170H160V175H155zM165,170H170V175H165zM20,175H25V180H20zM50,175H55V180H50zM60,175H65V180H60zM70,175H75V180H70zM80,175H85V180H80zM95,175H100V180H95zM100,175H105V180H100zM105,175H110V180H105zM110,175H115V180H110zM115,175H120V180H115zM135,175H140V180H135zM140,175H145V180H140zM150,175H155V180H150zM160,175H165V180H160zM165,175H170V180H165zM180,175H185V180H180zM20,180H25V185H20zM25,180H30V185H25zM30,180H35V185H30zM35,180H40V185H35zM40,180H45V185H40zM45,180H50V185H45zM50,180H55V185H50zM70,180H75V185H70zM75,180H80V185H75zM80,180H85V185H80zM100,180H105V185H100zM115,180H120V185H115zM120,180H125V185H120zM125,180H130V185H125zM145,180H150V185H145zM150,180H155V185H150zM160,180H165V185H160zM165,180H170V185H165zM170,180H175V185H170z" id="qr-path" fill="#0000ff" fill-opacity="1" fill-rule="nonzero" stroke="none"/></svg>