<svg width="205mm" height="205mm" version="1.1" viewBox="0 0 205 205" xmlns="http://www.w3.org/2000/svg"><path d="M20,20H25V25H20zM25,20H30V25H25zM30,20H35V25H30zM35,20H40V25H35zM40,20H45V25H40zM45,20H50V25H45zM50,20H55V25H50zM60,20H65V25H60zM70,20H75V25H70zM80,20H85V25H80zM90,20H95V25H90zM95,20H100V25H95zM100,20H105V25H100zM115,20H120V25H115zM125,20H130V25H125zM130,20H135V25H130zM135,20H140V25H135zM150,20H155V25H150zM155,20H160V25H155zM160,20H165V25H160zM165,20H170V25H165zM170,20H175V25H170zM175,20H180V25H175zM180,20H185V25H180zM20,25H25V30H20zM50,25H55V30H50zM70,25H75V30H70zM75,25H80V30H75zM80,25H85V30H80zM100,25H105V30H100zM105,25H110V30H105zM120,25H125V30H120zM125,25H130V30H125zM135,25H140V30H135zM150,25H155V30H150zM180,25H185V30H180zM20,30H25V35H20zM30,30H35V35H30zM35,30H40V35H35zM40,30H45V35H40zM50,30H55V35H50zM60,30H65V35H60zM65,30H70V35H65zM70,30H75V35H70zM85,30H90V35H85zM90,30H95V35H90zM100,30H105V35H100zM105,30H110V35H105zM120,30H125V35H120zM135,30H140V35H135zM140,30H145V35H140zM150,30H155V35H150zM160,30H165V35H160zM165,30H170V35H165zM170,30H175V35H170zM180,30H185V35H180zM20,35H25V40H20zM30,35H35V40H30zM35,35H40V40H35zM40,35H45V40H40zM50,35H55V40H50zM60,35H65V40H60zM65,35H70V40H65zM75,35H80V40H75zM95,35H100V40H95zM105,35H110V40H105zM115,35H120V40H115zM140,35H145V40H140zM150,35H155V40H150zM160,35H165V40H160zM165,35H170V40H165zM170,35H175V40H170zM180,35H185V40H180zM20,40H25V45H20zM30,40H35V45H30zM35,40H40V45H35zM40,40H45V45H40zM50,40H55V45H50zM65,40H70V45H65zM70,40H75V45H70zM75,40H80V45H75zM80,40H85V45H80zM100,40H105V45H100zM115,40H120V45H115zM125,40H130V45H125zM130,40H135V45H130zM135,40H140V45H135zM140,40H145V45H140zM150,40H155V45H150zM160,40H165V45H160zM165,40H170V45H165zM170,40H175V45H170zM180,40H185V45H180zM20,45H25V50H20zM50,45H55V50H50zM60,45H65V50H60zM70,45H75V50H70zM80,45H85V50H80zM85,45H90V50H85zM90,45H95V50H90zM95,45H100V50H95zM105,45H110V50H105zM120,45H125V50H120zM130,45H135V50H130zM150,45H155V50H150zM180,45H185V50H180zM20,50H25V55H20zM25,50H30V55H25zM30,50H35V55H30zM35,50H40V55H35zM40,50H45V55H40zM45,50H50V55H45zM50,50H55V55H50zM60,50H65V55H60zM70,50H75V55H70zM80,50H85V55H80zM90,50H95V55H90zM100,50H105V55H100zM110,50H115V55H110zM120,50H125V55H120zM130,50H135V55H130zM140,50H145V55H140zM150,50H155V55H150zM155,50H160V55H155zM160,50H165V55H160zM165,50H170V55H165zM170,50H175V55H170zM175,50H180V55H175zM180,50H185V55H180zM60,55H65V60H60zM75,55H80V60H75zM80,55H85V60H80zM85,55H90V60H85zM90,55H95V60H90zM105,55H110V60H105zM115,55H120V60H115zM120,55H125V60H120zM125,55H130V60H125zM135,55H140V60H135zM140,55H145V60H140zM25,60H30V65H25zM35,60H40V65H35zM45,60H50V65H45zM50,60H55V65H50zM55,60H60V65H55zM60,60H65V65H60zM85,60H90V65H85zM90,60H95V65H90zM100,60H105V65H100zM115,60H120V65H115zM125,60H130V65H125zM135,60H140V65H135zM140,60H145V65H140zM145,60H150V65H145zM150,60H155V65H150zM155,60H160V65H155zM165,60H170V65H165zM170,60H175V65H170zM180,60H185V65H180zM20,65H25V70H20zM25,65H30V70H25zM40,65H45V70H40zM45,65H50V70H45zM60,65H65V70H60zM85,65H90V70H85zM90,65H95V70H90zM120,65H125V70H120zM125,65H130V70H125zM140,65H145V70H140zM150,65H155V70H150zM155,65H160V70H155zM175,65H180V70H175zM180,65H185V70H180zM20,70H25V75H20zM25,70H30V75H25zM30,70H35V75H30zM35,70H40V75H35zM40,70H45V75H40zM45,70H50V75H45zM50,70H55V75H50zM60,70H65V75H60zM70,70H75V75H70zM80,70H85V75H80zM105,70H110V75H105zM115,70H120V75H115zM120,70H125V75H120zM140,70H145V75H140zM145,70H150V75H145zM150,70H155V75H150zM160,70H165V75H160zM170,70H175V75H170zM180,70H185V75H180zM55,75H60V80H55zM70,75H75V80H70zM85,75H90V80H85zM90,75H95V80H90zM100,75H105V80H100zM105,75H110V80H105zM115,75H120V80H115zM120,75H125V80H120zM125,75H130V80H125zM130,75H135V80H130zM140,75H145V80H140zM145,75H150V80H145zM155,75H160V80H155zM165,75H170V80H165zM20,80H25V85H20zM25,80H30V85H25zM30,80H35V85H30zM35,80H40V85H35zM40,80H45V85H40zM50,80H55V85H50zM70,80H75V85H70zM75,80H80V85H75zM85,80H90V85H85zM90,80H95V85H90zM115,80H120V85H115zM125,80H130V85H125zM130,80H135V85H130zM140,80H145V85H140zM150,80H155V85H150zM180,80H185V85H180zM20,85H25V90H20zM25,85H30V90H25zM30,85H35V90H30zM35,85H40V90H35zM40,85H45V90H40zM65,85H70V90H65zM70,85H75V90H70zM75,85H80V90H75zM100,85H105V90H100zM105,85H110V90H105zM140,85H145V90H140zM145,85H150V90H145zM150,85H155V90H150zM160,85H165V90H160zM170,85H175V90H170zM175,85H180V90H175zM180,85H185V90H180zM20,90H25V95H20zM30,90H35V95H30zM50,90H55V95H50zM65,90H70V95H65zM75,90H80V95H75zM95,90H100V95H95zM100,90H105V95H100zM120,90H125V95H120zM125,90H130V95H125zM135,90H140V95H135zM160,90H165V95H160zM175,90H180V95H175zM20,95H25V100H20zM45,95H50V100H45zM65,95H70V100H65zM70,95H75V100H70zM80,95H85V100H80zM85,95H90V100H85zM95,95H100V100H95zM105,95H110V100H105zM110,95H115V100H110zM115,95H120V100H115zM125,95H130V100H125zM135,95H140V100H135zM150,95H155V100H150zM175,95H180V100H175zM45,100H50V105H45zM50,100H55V105H50zM55,100H60V105H55zM60,100H65V105H60zM75,100H80V105H75zM90,100H95V105H90zM100,100H105V105H100zM105,100H110V105H105zM115,100H120V105H115zM120,100H125V105H120zM125,100H130V105H125zM130,100H135V105H130zM135,100H140V105H135zM145,100H150V105H145zM150,100H155V105H150zM155,100H160V105H155zM160,100H165V105H160zM180,100H185V105H180zM25,105H30V110H25zM30,105H35V110H30zM35,105H40V110H35zM45,105H50V110H45zM55,105H60V110H55zM60,105H65V110H60zM70,105H75V110H70zM75,105H80V110H75zM80,105H85V110H80zM100,105H105V110H100zM110,105H115V110H110zM125,105H130V110H125zM135,105H140V110H135zM140,105H145V110H140zM145,105H150V110H145zM155,105H160V110H155zM175,105H180V110H175zM25,110H30V115H25zM40,110H45V115H40zM50,110H55V115H50zM65,110H70V115H65zM75,110H80V115H75zM90,110H95V115H90zM110,110H115V115H110zM130,110H135V115H130zM145,110H150V115H145zM160,110H165V115H160zM165,110H170V115H165zM175,110H180V115H175zM180,110H185V115H180zM20,115H25V120H20zM35,115H40V120H35zM40,115H45V120H40zM45,115H50V120H45zM55,115H60V120H55zM60,115H65V120H60zM65,115H70V120H65zM70,115H75V120H70zM75,115H80V120H75zM85,115H90V120H85zM105,115H110V120H105zM115,115H120V120H115zM120,115H125V120H120zM125,115H130V120H125zM130,115H135V120H130zM135,115H140V120H135zM145,115H150V120H145zM155,115H160V120H155zM160,115H165V120H160zM180,115H185V120H180zM25,120H30V125H25zM35,120H40V125H35zM40,120H45V125H40zM45,120H50V125H45zM50,120H55V125H50zM60,120H65V125H60zM70,120H75V125H70zM75,120H80V125H75zM85,120H90V125H85zM90,120H95V125H90zM95,120H100V125H95zM100,120H105V125H100zM110,120H115V125H110zM125,120H130V125H125zM130,120H135V125H130zM140,120H145V125H140zM165,120H170V125H165zM175,120H180V125H175zM180,120H185V125H180zM25,125H30V130H25zM30,125H35V130H30zM40,125H45V130H40zM55,125H60V130H55zM70,125H75V130H70zM75,125H80V130H75zM80,125H85V130H80zM115,125H120V130H115zM120,125H125V130H120zM125,125H130V130H125zM130,125H135V130H130zM140,125H145V130H140zM150,125H155V130H150zM170,125H175V130H170zM175,125H180V130H175zM180,125H185V130H180zM20,130H25V135H20zM25,130H30V135H25zM30,130H35V135H30zM35,130H40V135H35zM50,130H55V135H50zM60,130H65V135H60zM65,130H70V135H65zM75,130H80V135H75zM80,130H85V135H80zM85,130H90V135H85zM90,130H95V135H90zM95,130H100V135H95zM110,130H115V135H110zM120,130H125V135H120zM140,130H145V135H140zM155,130H160V135H155zM160,130H165V135H160zM165,130H170V135H165zM170,130H175V135H170zM180,130H185V135H180zM25,135H30V140H25zM30,135H35V140H30zM35,135H40V140H35zM55,135H60V140H55zM70,135H75V140H70zM80,135H85V140H80zM85,135H90V140H85zM90,135H95V140H90zM125,135H130V140H125zM130,135H135V140H130zM135,135H140V140H135zM140,135H145V140H140zM145,135H150V140H145zM160,135H165V140H160zM180,135H185V140H180zM20,140H25V145H20zM35,140H40V145H35zM40,140H45V145H40zM45,140H50V145H45zM50,140H55V145H50zM65,140H70V145H65zM70,140H75V145H70zM90,140H95V145H90zM95,140H100V145H95zM100,140H105V145H100zM110,140H115V145H110zM115,140H120V145H115zM125,140H130V145H125zM140,140H145V145H140zM145,140H150V145H145zM150,140H155V145H150zM155,140H160V145H155zM160,140H165V145H160zM60,145H65V150H60zM65,145H70V150H65zM80,145H85V150H80zM90,145H95V150H90zM110,145H115V150H110zM115,145H120V150H115zM120,145H125V150H120zM125,145H130V150H125zM130,145H135V150H130zM140,145H145V150H140zM160,145H165V150H160zM165,145H170V150H165zM180,145H185V150H180zM20,150H25V155H20zM25,150H30V155H25zM30,150H35V155H30zM35,150H40V155H35zM40,150H45V155H40zM45,150H50V155H45zM50,150H55V155H50zM60,150H65V155H60zM65,150H70V155H65zM75,150H80V155H75zM90,150H95V155H90zM105,150H110V155H105zM110,150H115V155H110zM120,150H125V155H120zM140,150H145V155H140zM150,150H155V155H150zM160,150H165V155H160zM20,155H25V160H20zM50,155H55V160H50zM60,155H65V160H60zM65,155H70V160H65zM85,155H90V160H85zM95,155H100V160H95zM100,155H105V160H100zM110,155H115V160H110zM115,155H120V160H115zM125,155H130V160H125zM140,155H145V160H140zM160,155H165V160H160zM165,155H170V160H165zM20,160H25V165H20zM30,160H35V165H30zM35,160H40V165H35zM40,160H45V165H40zM50,160H55V165H50zM65,160H70V165H65zM70,160H75V165H70zM90,160H95V165H90zM95,160H100V165H95zM100,160H105V165H100zM105,160H110V165H105zM110,160H115V165H110zM120,160H125V165H120zM125,160H130V165H125zM140,160H145V165H140zM145,160H150V165H145zM150,160H155V165H150zM155,160H160V165H155zM160,160H165V165H160zM165,160H170V165H165zM180,160H185V165H180zM20,165H25V170H20zM30,165H35V170H30zM35,165H40V170H35zM40,165H45V170H40zM50,165H55V170H50zM60,165H65V170H60zM70,165H75V170H70zM75,165H80V170H75zM80,165H85V170H80zM85,165H90V170H85zM95,165H100V170H95zM110,165H115V170H110zM115,165H120V170H115zM120,165H125V170H120zM130,165H135V170H130zM150,165H155V170H150zM160,165H165V170H160zM165,165H170V170H165zM170,165H175V170H170zM175,165H180V170H175zM20,170H25V175H20zM30,170H35V175H30zM35,170H40V175H35zM40,170H45V175H40zM50,170H55V175H50zM70,170H75V175H70zM75,170H80V175H75zM80,170H85V175H80zM90,170H95V175H90zM95,170H100V175H95zM100,170H105V175H100zM125,170H130V175H125zM140,170H145V175H140zM145,170H150V175H145zM160,170H165V175H160zM165,170H170V175H165zM180,170H185V175H180zM20,175H25V180H20zM50,175H55V180H50zM60,175H65V180H60zM65,175H70V180H65zM80,175H85V180H80zM90,175H95V180H90zM95,175H100V180H95zM105,175H110V180H105zM110,175H115V180H110zM125,175H130V180H125zM130,175H135V180H130zM135,175H140V180H135zM140,175H145V180H140zM155,175H160V180H155zM165,175H170V180H165zM20,180H25V185H20zM25,180H30V185H25zM30,180H35V185H30zM35,180H40V185H35zM40,180H45V185H40zM45,180H50V185H45zM50,180H55V185H50zM70,180H75V185H70zM75,180H80V185H75zM85,180H90V185H85zM100,180H105V185H100zM105,180H110V185H105zM110,180H115V185H110zM120,180H125V185H120zM125,180H130V185H125zM135,180H140V185H135zM140,180H145V185H140zM150,180H155V185H150zM160,180H165V185H160zM175,180H180V185H175z" id="qr-path" fill="#0000ff" fill-opacity="1" fill-rule="nonzero" stroke="none"/></svg>