<svg width="205mm" height="205mm" version="1.1" viewBox="0 0 205 205" xmlns="http://www.w3.org/2000/svg"><path d="M20,20H25V25H20zM25,20H30V25H25zM30,20H35V25H30zM35,20H40V25H35zM40,20H45V25H40zM45,20H50V25H45zM50,20H55V25H50zM65,20H70V25H65zM80,20H85V25H80zM85,20H90V25H85zM90,20H95V25H90zM95,20H100V25H95zM125,20H130V25H125zM135,20H140V25H135zM150,20H155V25H150zM155,20H160V25H155zM160,20H165V25H160zM165,20H170V25H165zM170,20H175V25H170zM175,20H180V25H175zM180,20H185V25H180zM20,25H25V30H20zM50,25H55V30H50zM70,25H75V30H70zM95,25H100V30H95zM110,25H115V30H110zM115,25H120V30H115zM130,25H135V30H130zM140,25H145V30H140zM150,25H155V30H150zM180,25H185V30H180zM20,30H25V35H20zM30,30H35V35H30zM35,30H40V35H35zM40,30H45V35H40zM50,30H55V35H50zM60,30H65V35H60zM65,30H70V35H65zM70,30H75V35H70zM80,30H85V35H80zM90,30H95V35H90zM95,30H100V35H95zM100,30H105V35H100zM105,30H110V35H105zM110,30H115V35H110zM120,30H125V35H120zM125,30H130V35H125zM135,30H140V35H135zM150,30H155V35H150zM160,30H165V35H160zM165,30H170V35H165zM170,30H175V35H170zM180,30H185V35H180zM20,35H25V40H20zM30,35H35V40H30zM35,35H40V40H35zM40,35H45V40H40zM50,35H55V40H50zM70,35H75V40H70zM75,35H80V40H75zM80,35H85V40H80zM90,35H95V40H90zM95,35H100V40H95zM100,35H105V40H100zM105,35H110V40H105zM130,35H135V40H130zM140,35H145V40H140zM150,35H155V40H150zM160,35H165V40H160zM165,35H170V40H165zM170,35H175V40H170zM180,35H185V40H180zM20,40H25V45H20zM30,40H35V45H30zM35,40H40V45H35zM40,40H45V45H40zM50,40H55V45H50zM60,40H65V45H60zM65,40H70V45H65zM95,40H100V45H95zM100,40H105V45H100zM115,40H120V45H115zM125,40H130V45H125zM130,40H135V45H130zM135,40H140V45H135zM140,40H145V45H140zM150,40H155V45H150zM160,40H165V45H160zM165,40H170V45H165zM170,40H175V45H170zM180,40H185V45H180zM20,45H25V50H20zM50,45H55V50H50zM60,45H65V50H60zM65,45H70V50H65zM70,45H75V50H70zM85,45H90V50H85zM90,45H95V50H90zM100,45H105V50H100zM105,45H110V50H105zM110,45H115V50H110zM120,45H125V50H120zM125,45H130V50H125zM130,45H135V50H130zM140,45H145V50H140zM150,45H155V50H150zM180,45H185V50H180zM20,50H25V55H20zM25,50H30V55H25zM30,50H35V55H30zM35,50H40V55H35zM40,50H45V55H40zM45,50H50V55H45zM50,50H55V55H50zM60,50H65V55H60zM70,50H75V55H70zM80,50H85V55H80zM90,50H95V55H90zM100,50H105V55H100zM110,50H115V55H110zM120,50H125V55H120zM130,50H135V55H130zM140,50H145V55H140zM150,50H155V55H150zM155,50H160V55H155zM160,50H165V55H160zM165,50H170V55H165zM170,50H175V55H170zM175,50H180V55H175zM180,50H185V55H180zM75,55H80V60H75zM80,55H85V60H80zM85,55H90V60H85zM90,55H95V60H90zM95,55H100V60H95zM105,55H110V60H105zM115,55H120V60H115zM120,55H125V60H120zM125,55H130V60H125zM135,55H140V60H135zM140,55H145V60H140zM25,60H30V65H25zM40,60H45V65H40zM50,60H55V65H50zM60,60H65V65H60zM70,60H75V65H70zM95,60H100V65H95zM105,60H110V65H105zM120,60H125V65H120zM125,60H130V65H125zM130,60H135V65H130zM140,60H145V65H140zM145,60H150V65H145zM155,60H160V65H155zM160,60H165V65H160zM170,60H175V65H170zM20,65H25V70H20zM25,65H30V70H25zM30,65H35V70H30zM35,65H40V70H35zM40,65H45V70H40zM65,65H70V70H65zM75,65H80V70H75zM80,65H85V70H80zM85,65H90V70H85zM95,65H100V70H95zM105,65H110V70H105zM110,65H115V70H110zM135,65H140V70H135zM165,65H170V70H165zM170,65H175V70H170zM175,65H180V70H175zM25,70H30V75H25zM50,70H55V75H50zM55,70H60V75H55zM65,70H70V75H65zM75,70H80V75H75zM90,70H95V75H90zM95,70H100V75H95zM100,70H105V75H100zM110,70H115V75H110zM125,70H130V75H125zM130,70H135V75H130zM135,70H140V75H135zM155,70H160V75H155zM165,70H170V75H165zM175,70H180V75H175zM20,75H25V80H20zM25,75H30V80H25zM30,75H35V80H30zM40,75H45V80H40zM45,75H50V80H45zM60,75H65V80H60zM70,75H75V80H70zM75,75H80V80H75zM85,75H90V80H85zM90,75H95V80H90zM125,75H130V80H125zM135,75H140V80H135zM140,75H145V80H140zM150,75H155V80H150zM155,75H160V80H155zM160,75H165V80H160zM175,75H180V80H175zM180,75H185V80H180zM30,80H35V85H30zM40,80H45V85H40zM45,80H50V85H45zM50,80H55V85H50zM55,80H60V85H55zM65,80H70V85H65zM70,80H75V85H70zM75,80H80V85H75zM90,80H95V85H90zM100,80H105V85H100zM125,80H130V85H125zM140,80H145V85H140zM145,80H150V85H145zM150,80H155V85H150zM160,80H165V85H160zM175,80H180V85H175zM180,80H185V85H180zM25,85H30V90H25zM30,85H35V90H30zM35,85H40V90H35zM55,85H60V90H55zM60,85H65V90H60zM80,85H85V90H80zM85,85H90V90H85zM90,85H95V90H90zM100,85H105V90H100zM110,85H115V90H110zM115,85H120V90H115zM120,85H125V90H120zM125,85H130V90H125zM130,85H135V90H130zM135,85H140V90H135zM155,85H160V90H155zM165,85H170V90H165zM50,90H55V95H50zM55,90H60V95H55zM80,90H85V95H80zM100,90H105V95H100zM110,90H115V95H110zM120,90H125V95H120zM135,90H140V95H135zM140,90H145V95H140zM155,90H160V95H155zM160,90H165V95H160zM170,90H175V95H170zM175,90H180V95H175zM20,95H25V100H20zM25,95H30V100H25zM40,95H45V100H40zM45,95H50V100H45zM55,95H60V100H55zM60,95H65V100H60zM65,95H70V100H65zM75,95H80V100H75zM95,95H100V100H95zM105,95H110V100H105zM110,95H115V100H110zM125,95H130V100H125zM130,95H135V100H130zM135,95H140V100H135zM145,95H150V100H145zM150,95H155V100H150zM160,95H165V100H160zM30,100H35V105H30zM45,100H50V105H45zM50,100H55V105H50zM55,100H60V105H55zM60,100H65V105H60zM75,100H80V105H75zM90,100H95V105H90zM100,100H105V105H100zM105,100H110V105H105zM115,100H120V105H115zM120,100H125V105H120zM125,100H130V105H125zM130,100H135V105H130zM135,100H140V105H135zM145,100H150V105H145zM150,100H155V105H150zM155,100H160V105H155zM160,100H165V105H160zM180,100H185V105H180zM20,105H25V110H20zM25,105H30V110H25zM30,105H35V110H30zM45,105H50V110H45zM55,105H60V110H55zM60,105H65V110H60zM70,105H75V110H70zM75,105H80V110H75zM85,105H90V110H85zM95,105H100V110H95zM100,105H105V110H100zM105,105H110V110H105zM135,105H140V110H135zM145,105H150V110H145zM170,105H175V110H170zM175,105H180V110H175zM20,110H25V115H20zM25,110H30V115H25zM30,110H35V115H30zM35,110H40V115H35zM50,110H55V115H50zM60,110H65V115H60zM70,110H75V115H70zM80,110H85V115H80zM95,110H100V115H95zM105,110H110V115H105zM110,110H115V115H110zM120,110H125V115H120zM125,110H130V115H125zM130,110H135V115H130zM135,110H140V115H135zM140,110H145V115H140zM145,110H150V115H145zM150,110H155V115H150zM155,110H160V115H155zM160,110H165V115H160zM170,110H175V115H170zM175,110H180V115H175zM35,115H40V120H35zM45,115H50V120H45zM55,115H60V120H55zM60,115H65V120H60zM65,115H70V120H65zM75,115H80V120H75zM85,115H90V120H85zM90,115H95V120H90zM110,115H115V120H110zM115,115H120V120H115zM120,115H125V120H120zM125,115H130V120H125zM130,115H135V120H130zM135,115H140V120H135zM145,115H150V120H145zM155,115H160V120H155zM160,115H165V120H160zM180,115H185V120H180zM20,120H25V125H20zM30,120H35V125H30zM35,120H40V125H35zM40,120H45V125H40zM45,120H50V125H45zM50,120H55V125H50zM55,120H60V125H55zM60,120H65V125H60zM80,120H85V125H80zM85,120H90V125H85zM90,120H95V125H90zM95,120H100V125H95zM115,120H120V125H115zM120,120H125V125H120zM125,120H130V125H125zM135,120H140V125H135zM140,120H145V125H140zM145,120H150V125H145zM150,120H155V125H150zM160,120H165V125H160zM20,125H25V130H20zM25,125H30V130H25zM30,125H35V130H30zM40,125H45V130H40zM45,125H50V130H45zM65,125H70V130H65zM75,125H80V130H75zM80,125H85V130H80zM100,125H105V130H100zM105,125H110V130H105zM115,125H120V130H115zM130,125H135V130H130zM135,125H140V130H135zM155,125H160V130H155zM165,125H170V130H165zM175,125H180V130H175zM35,130H40V135H35zM40,130H45V135H40zM45,130H50V135H45zM50,130H55V135H50zM55,130H60V135H55zM60,130H65V135H60zM70,130H75V135H70zM80,130H85V135H80zM95,130H100V135H95zM105,130H110V135H105zM115,130H120V135H115zM125,130H130V135H125zM130,130H135V135H130zM135,130H140V135H135zM145,130H150V135H145zM150,130H155V135H150zM175,130H180V135H175zM35,135H40V140H35zM40,135H45V140H40zM45,135H50V140H45zM75,135H80V140H75zM95,135H100V140H95zM100,135H105V140H100zM105,135H110V140H105zM115,135H120V140H115zM120,135H125V140H120zM125,135H130V140H125zM140,135H145V140H140zM150,135H155V140H150zM165,135H170V140H165zM175,135H180V140H175zM20,140H25V145H20zM25,140H30V145H25zM35,140H40V145H35zM45,140H50V145H45zM50,140H55V145H50zM55,140H60V145H55zM65,140H70V145H65zM75,140H80V145H75zM85,140H90V145H85zM90,140H95V145H90zM110,140H115V145H110zM125,140H130V145H125zM130,140H135V145H130zM140,140H145V145H140zM145,140H150V145H145zM150,140H155V145H150zM155,140H160V145H155zM160,140H165V145H160zM175,140H180V145H175zM60,145H65V150H60zM70,145H75V150H70zM75,145H80V150H75zM95,145H100V150H95zM100,145H105V150H100zM135,145H140V150H135zM140,145H145V150H140zM160,145H165V150H160zM170,145H175V150H170zM175,145H180V150H175zM20,150H25V155H20zM25,150H30V155H25zM30,150H35V155H30zM35,150H40V155H35zM40,150H45V155H40zM45,150H50V155H45zM50,150H55V155H50zM75,150H80V155H75zM80,150H85V155H80zM90,150H95V155H90zM95,150H100V155H95zM105,150H110V155H105zM120,150H125V155H120zM125,150H130V155H125zM140,150H145V155H140zM150,150H155V155H150zM160,150H165V155H160zM170,150H175V155H170zM20,155H25V160H20zM50,155H55V160H50zM65,155H70V160H65zM85,155H90V160H85zM90,155H95V160H90zM95,155H100V160H95zM105,155H110V160H105zM125,155H130V160H125zM130,155H135V160H130zM140,155H145V160H140zM160,155H165V160H160zM165,155H170V160H165zM175,155H180V160H175zM20,160H25V165H20zM30,160H35V165H30zM35,160H40V165H35zM40,160H45V165H40zM50,160H55V165H50zM60,160H65V165H60zM70,160H75V165H70zM80,160H85V165H80zM90,160H95V165H90zM95,160H100V165H95zM100,160H105V165H100zM110,160H115V165H110zM120,160H125V165H120zM125,160H130V165H125zM140,160H145V165H140zM145,160H150V165H145zM150,160H155V165H150zM155,160H160V165H155zM160,160H165V165H160zM165,160H170V165H165zM180,160H185V165H180zM20,165H25V170H20zM30,165H35V170H30zM35,165H40V170H35zM40,165H45V170H40zM50,165H55V170H50zM65,165H70V170H65zM75,165H80V170H75zM80,165H85V170H80zM85,165H90V170H85zM95,165H100V170H95zM115,165H120V170H115zM120,165H125V170H120zM125,165H130V170H125zM130,165H135V170H130zM140,165H145V170H140zM150,165H155V170H150zM155,165H160V170H155zM160,165H165V170H160zM165,165H170V170H165zM175,165H180V170H175zM20,170H25V175H20zM30,170H35V175H30zM35,170H40V175H35zM40,170H45V175H40zM50,170H55V175H50zM65,170H70V175H65zM70,170H75V175H70zM80,170H85V175H80zM95,170H100V175H95zM105,170H110V175H105zM110,170H115V175H110zM120,170H125V175H120zM135,170H140V175H135zM145,170H150V175H145zM150,170H155V175H150zM155,170H160V175H155zM160,170H165V175H160zM170,170H175V175H170zM20,175H25V180H20zM50,175H55V180H50zM60,175H65V180H60zM65,175H70V180H65zM75,175H80V180H75zM80,175H85V180H80zM90,175H95V180H90zM105,175H110V180H105zM110,175H115V180H110zM115,175H120V180H115zM120,175H125V180H120zM125,175H130V180H125zM130,175H135V180H130zM135,175H140V180H135zM140,175H145V180H140zM155,175H160V180H155zM165,175H170V180H165zM20,180H25V185H20zM25,180H30V185H25zM30,180H35V185H30zM35,180H40V185H35zM40,180H45V185H40zM45,180H50V185H45zM50,180H55V185H50zM90,180H95V185H90zM110,180H115V185H110zM115,180H120V185H115zM125,180H130V185H125zM130,180H135V185H130zM140,180H145V185H140zM145,180H150V185H145zM165,180H170V185H165zM180,180H185V185H180z" id="qr-path" fill="#0000ff" fill-opacity="1" fill-rule="nonzero" stroke="none"/></svg>