<svg width="205mm" height="205mm" version="1.1" viewBox="0 0 205 205" xmlns="http://www.w3.org/2000/svg"><path d="M20,20H25V25H20zM25,20H30V25H25zM30,20H35V25H30zM35,20H40V25H35zM40,20H45V25H40zM45,20H50V25H45zM50,20H55V25H50zM60,20H65V25H60zM70,20H75V25H70zM75,20H80V25H75zM80,20H85V25H80zM85,20H90V25H85zM90,20H95V25H90zM100,20H105V25H100zM105,20H110V25H105zM130,20H135V25H130zM150,20H155V25H150zM155,20H160V25H155zM160,20H165V25H160zM165,20H170V25H165zM170,20H175V25H170zM175,20H180V25H175zM180,20H185V25H180zM20,25H25V30H20zM50,25H55V30H50zM60,25H65V30H60zM65,25H70V30H65zM90,25H95V30H90zM95,25H100V30H95zM110,25H115V30H110zM120,25H125V30H120zM130,25H135V30H130zM140,25H145V30H140zM150,25H155V30H150zM180,25H185V30H180zM20,30H25V35H20zM30,30H35V35H30zM35,30H40V35H35zM40,30H45V35H40zM50,30H55V35H50zM65,30H70V35H65zM75,30H80V35H75zM90,30H95V35H90zM95,30H100V35H95zM120,30H125V35H120zM125,30H130V35H125zM130,30H135V35H130zM140,30H145V35H140zM150,30H155V35H150zM160,30H165V35H160zM165,30H170V35H165zM170,30H175V35H170zM180,30H185V35H180zM20,35H25V40H20zM30,35H35V40H30zM35,35H40V40H35zM40,35H45V40H40zM50,35H55V40H50zM65,35H70V40H65zM80,35H85V40H80zM85,35H90V40H85zM110,35H115V40H110zM120,35H125V40H120zM125,35H130V40H125zM130,35H135V40H130zM135,35H140V40H135zM150,35H155V40H150zM160,35H165V40H160zM165,35H170V40H165zM170,35H175V40H170zM180,35H185V40H180zM20,40H25V45H20zM30,40H35V45H30zM35,40H40V45H35zM40,40H45V45H40zM50,40H55V45H50zM80,40H85V45H80zM85,40H90V45H85zM90,40H95V45H90zM120,40H125V45H120zM130,40H135V45H130zM135,40H140V45H135zM140,40H145V45H140zM150,40H155V45H150zM160,40H165V45H160zM165,40H170V45H165zM170,40H175V45H170zM180,40H185V45H180zM20,45H25V50H20zM50,45H55V50H50zM65,45H70V50H65zM70,45H75V50H70zM80,45H85V50H80zM105,45H110V50H105zM110,45H115V50H110zM115,45H120V50H115zM125,45H130V50H125zM130,45H135V50H130zM140,45H145V50H140zM150,45H155V50H150zM180,45H185V50H180zM20,50H25V55H20zM25,50H30V55H25zM30,50H35V55H30zM35,50H40V55H35zM40,50H45V55H40zM45,50H50V55H45zM50,50H55V55H50zM60,50H65V55H60zM70,50H75V55H70zM80,50H85V55H80zM90,50H95V55H90zM100,50H105V55H100zM110,50H115V55H110zM120,50H125V55H120zM130,50H135V55H130zM140,50H145V55H140zM150,50H155V55H150zM155,50H160V55H155zM160,50H165V55H160zM165,50H170V55H165zM170,50H175V55H170zM175,50H180V55H175zM180,50H185V55H180zM65,55H70V60H65zM70,55H75V60H70zM75,55H80V60H75zM85,55H90V60H85zM90,55H95V60H90zM95,55H100V60H95zM110,55H115V60H110zM115,55H120V60H115zM120,55H125V60H120zM130,55H135V60H130zM25,60H30V65H25zM50,60H55V65H50zM55,60H60V65H55zM60,60H65V65H60zM65,60H70V65H65zM70,60H75V65H70zM75,60H80V65H75zM85,60H90V65H85zM90,60H95V65H90zM95,60H100V65H95zM105,60H110V65H105zM115,60H120V65H115zM130,60H135V65H130zM140,60H145V65H140zM145,60H150V65H145zM175,60H180V65H175zM180,60H185V65H180zM20,65H25V70H20zM30,65H35V70H30zM35,65H40V70H35zM40,65H45V70H40zM55,65H60V70H55zM70,65H75V70H70zM75,65H80V70H75zM80,65H85V70H80zM95,65H100V70H95zM100,65H105V70H100zM105,65H110V70H105zM110,65H115V70H110zM115,65H120V70H115zM130,65H135V70H130zM135,65H140V70H135zM145,65H150V70H145zM160,65H165V70H160zM165,65H170V70H165zM170,65H175V70H170zM40,70H45V75H40zM45,70H50V75H45zM50,70H55V75H50zM55,70H60V75H55zM65,70H70V75H65zM70,70H75V75H70zM80,70H85V75H80zM85,70H90V75H85zM95,70H100V75H95zM105,70H110V75H105zM125,70H130V75H125zM140,70H145V75H140zM155,70H160V75H155zM160,70H165V75H160zM170,70H175V75H170zM175,70H180V75H175zM30,75H35V80H30zM35,75H40V80H35zM45,75H50V80H45zM60,75H65V80H60zM65,75H70V80H65zM70,75H75V80H70zM80,75H85V80H80zM95,75H100V80H95zM100,75H105V80H100zM105,75H110V80H105zM110,75H115V80H110zM130,75H135V80H130zM150,75H155V80H150zM165,75H170V80H165zM170,75H175V80H170zM175,75H180V80H175zM180,75H185V80H180zM20,80H25V85H20zM25,80H30V85H25zM30,80H35V85H30zM40,80H45V85H40zM45,80H50V85H45zM50,80H55V85H50zM55,80H60V85H55zM80,80H85V85H80zM85,80H90V85H85zM95,80H100V85H95zM105,80H110V85H105zM130,80H135V85H130zM135,80H140V85H135zM140,80H145V85H140zM145,80H150V85H145zM150,80H155V85H150zM155,80H160V85H155zM165,80H170V85H165zM175,80H180V85H175zM180,80H185V85H180zM35,85H40V90H35zM60,85H65V90H60zM80,85H85V90H80zM90,85H95V90H90zM95,85H100V90H95zM110,85H115V90H110zM125,85H130V90H125zM130,85H135V90H130zM135,85H140V90H135zM145,85H150V90H145zM150,85H155V90H150zM155,85H160V90H155zM165,85H170V90H165zM175,85H180V90H175zM180,85H185V90H180zM20,90H25V95H20zM35,90H40V95H35zM40,90H45V95H40zM45,90H50V95H45zM50,90H55V95H50zM55,90H60V95H55zM60,90H65V95H60zM70,90H75V95H70zM75,90H80V95H75zM80,90H85V95H80zM105,90H110V95H105zM120,90H125V95H120zM130,90H135V95H130zM155,90H160V95H155zM165,90H170V95H165zM175,90H180V95H175zM25,95H30V100H25zM30,95H35V100H30zM35,95H40V100H35zM40,95H45V100H40zM75,95H80V100H75zM90,95H95V100H90zM100,95H105V100H100zM120,95H125V100H120zM130,95H135V100H130zM140,95H145V100H140zM145,95H150V100H145zM155,95H160V100H155zM160,95H165V100H160zM165,95H170V100H165zM170,95H175V100H170zM180,95H185V100H180zM25,100H30V105H25zM35,100H40V105H35zM45,100H50V105H45zM50,100H55V105H50zM65,100H70V105H65zM75,100H80V105H75zM85,100H90V105H85zM100,100H105V105H100zM105,100H110V105H105zM130,100H135V105H130zM135,100H140V105H135zM160,100H165V105H160zM175,100H180V105H175zM45,105H50V110H45zM65,105H70V110H65zM70,105H75V110H70zM75,105H80V110H75zM90,105H95V110H90zM95,105H100V110H95zM100,105H105V110H100zM115,105H120V110H115zM120,105H125V110H120zM135,105H140V110H135zM150,105H155V110H150zM170,105H175V110H170zM180,105H185V110H180zM25,110H30V115H25zM35,110H40V115H35zM40,110H45V115H40zM45,110H50V115H45zM50,110H55V115H50zM55,110H60V115H55zM65,110H70V115H65zM70,110H75V115H70zM95,110H100V115H95zM105,110H110V115H105zM110,110H115V115H110zM115,110H120V115H115zM125,110H130V115H125zM130,110H135V115H130zM135,110H140V115H135zM155,110H160V115H155zM160,110H165V115H160zM180,110H185V115H180zM20,115H25V120H20zM25,115H30V120H25zM55,115H60V120H55zM60,115H65V120H60zM80,115H85V120H80zM95,115H100V120H95zM100,115H105V120H100zM105,115H110V120H105zM110,115H115V120H110zM115,115H120V120H115zM120,115H125V120H120zM140,115H145V120H140zM145,115H150V120H145zM165,115H170V120H165zM170,115H175V120H170zM180,115H185V120H180zM40,120H45V125H40zM45,120H50V125H45zM50,120H55V125H50zM60,120H65V125H60zM80,120H85V125H80zM90,120H95V125H90zM100,120H105V125H100zM135,120H140V125H135zM140,120H145V125H140zM155,120H160V125H155zM160,120H165V125H160zM175,120H180V125H175zM180,120H185V125H180zM20,125H25V130H20zM30,125H35V130H30zM45,125H50V130H45zM55,125H60V130H55zM65,125H70V130H65zM85,125H90V130H85zM95,125H100V130H95zM100,125H105V130H100zM105,125H110V130H105zM110,125H115V130H110zM135,125H140V130H135zM145,125H150V130H145zM155,125H160V130H155zM160,125H165V130H160zM165,125H170V130H165zM20,130H25V135H20zM35,130H40V135H35zM50,130H55V135H50zM55,130H60V135H55zM75,130H80V135H75zM110,130H115V135H110zM115,130H120V135H115zM125,130H130V135H125zM140,130H145V135H140zM145,130H150V135H145zM150,130H155V135H150zM160,130H165V135H160zM165,130H170V135H165zM170,130H175V135H170zM175,130H180V135H175zM20,135H25V140H20zM35,135H40V140H35zM55,135H60V140H55zM65,135H70V140H65zM70,135H75V140H70zM75,135H80V140H75zM80,135H85V140H80zM100,135H105V140H100zM110,135H115V140H110zM115,135H120V140H115zM120,135H125V140H120zM130,135H135V140H130zM135,135H140V140H135zM150,135H155V140H150zM155,135H160V140H155zM160,135H165V140H160zM170,135H175V140H170zM175,135H180V140H175zM20,140H25V145H20zM25,140H30V145H25zM30,140H35V145H30zM40,140H45V145H40zM50,140H55V145H50zM70,140H75V145H70zM85,140H90V145H85zM90,140H95V145H90zM95,140H100V145H95zM100,140H105V145H100zM105,140H110V145H105zM110,140H115V145H110zM135,140H140V145H135zM140,140H145V145H140zM145,140H150V145H145zM150,140H155V145H150zM155,140H160V145H155zM160,140H165V145H160zM165,140H170V145H165zM175,140H180V145H175zM60,145H65V150H60zM65,145H70V150H65zM70,145H75V150H70zM75,145H80V150H75zM90,145H95V150H90zM95,145H100V150H95zM100,145H105V150H100zM105,145H110V150H105zM115,145H120V150H115zM120,145H125V150H120zM135,145H140V150H135zM140,145H145V150H140zM160,145H165V150H160zM170,145H175V150H170zM180,145H185V150H180zM20,150H25V155H20zM25,150H30V155H25zM30,150H35V155H30zM35,150H40V155H35zM40,150H45V155H40zM45,150H50V155H45zM50,150H55V155H50zM60,150H65V155H60zM85,150H90V155H85zM95,150H100V155H95zM100,150H105V155H100zM105,150H110V155H105zM110,150H115V155H110zM120,150H125V155H120zM125,150H130V155H125zM130,150H135V155H130zM135,150H140V155H135zM140,150H145V155H140zM150,150H155V155H150zM160,150H165V155H160zM165,150H170V155H165zM20,155H25V160H20zM50,155H55V160H50zM65,155H70V160H65zM70,155H75V160H70zM75,155H80V160H75zM80,155H85V160H80zM120,155H125V160H120zM135,155H140V160H135zM140,155H145V160H140zM160,155H165V160H160zM170,155H175V160H170zM175,155H180V160H175zM180,155H185V160H180zM20,160H25V165H20zM30,160H35V165H30zM35,160H40V165H35zM40,160H45V165H40zM50,160H55V165H50zM65,160H70V165H65zM70,160H75V165H70zM85,160H90V165H85zM110,160H115V165H110zM115,160H120V165H115zM140,160H145V165H140zM145,160H150V165H145zM150,160H155V165H150zM155,160H160V165H155zM160,160H165V165H160zM165,160H170V165H165zM175,160H180V165H175zM20,165H25V170H20zM30,165H35V170H30zM35,165H40V170H35zM40,165H45V170H40zM50,165H55V170H50zM65,165H70V170H65zM70,165H75V170H70zM75,165H80V170H75zM80,165H85V170H80zM90,165H95V170H90zM125,165H130V170H125zM130,165H135V170H130zM140,165H145V170H140zM145,165H150V170H145zM155,165H160V170H155zM160,165H165V170H160zM165,165H170V170H165zM180,165H185V170H180zM20,170H25V175H20zM30,170H35V175H30zM35,170H40V175H35zM40,170H45V175H40zM50,170H55V175H50zM65,170H70V175H65zM70,170H75V175H70zM80,170H85V175H80zM85,170H90V175H85zM90,170H95V175H90zM95,170H100V175H95zM100,170H105V175H100zM105,170H110V175H105zM115,170H120V175H115zM135,170H140V175H135zM140,170H145V175H140zM155,170H160V175H155zM160,170H165V175H160zM175,170H180V175H175zM180,170H185V175H180zM20,175H25V180H20zM50,175H55V180H50zM60,175H65V180H60zM70,175H75V180H70zM75,175H80V180H75zM80,175H85V180H80zM90,175H95V180H90zM95,175H100V180H95zM100,175H105V180H100zM115,175H120V180H115zM160,175H165V180H160zM170,175H175V180H170zM20,180H25V185H20zM25,180H30V185H25zM30,180H35V185H30zM35,180H40V185H35zM40,180H45V185H40zM45,180H50V185H45zM50,180H55V185H50zM65,180H70V185H65zM85,180H90V185H85zM110,180H115V185H110zM120,180H125V185H120zM130,180H135V185H130zM140,180H145V185H140zM150,180H155V185H150zM155,180H160V185H155zM165,180H170V185H165zM175,180H180V185H175z" id="qr-path" fill="#0000ff" fill-opacity="1" fill-rule="nonzero" stroke="none"/></svg>